<?xml version="1.0" encoding="UTF-8"?>
<svg width="272px" height="40px" viewBox="0 0 272 40" version="1.1" xmlns="http://www.w3.org/2000/svg" xmlns:xlink="http://www.w3.org/1999/xlink">
    <!-- Generator: Sketch 50.2 (55047) - http://www.bohemiancoding.com/sketch -->
    <title>logo</title>
    <desc>Created with Sketch.</desc>
    <defs></defs>
    <g id="Page-1" stroke="none" stroke-width="1" fill="none" fill-rule="evenodd">
        <g id="logo" fill-rule="nonzero">
            <polygon id="Path_1" fill="#1565C0" points="24.75 32.5 0.1 32.5 -6.66133815e-16 29.95 18.4 4.05 18.4 3.95 5.9 3.95 4.6 10.1 0.75 9.65 1.95 0 24.9 0 25 2.3 6.45 28.45 6.45 28.55 20.8 28.55 22.1 21.9 26 22.4"></polygon>
            <path d="M30.79,14.06 C31.6964861,13.4586196 32.696855,13.0125091 33.75,12.74 C34.8354791,12.4677815 35.9509272,12.3333902 37.07,12.34 C41.31,12.34 43.43,14.3266667 43.43,18.3 L43.43,26.78 C43.43,28.06 43.9366667,28.7 44.95,28.7 C45.3627023,28.7083162 45.7722425,28.6264081 46.15,28.46 L46.19,30.3 C45.481499,30.697097 44.6821854,30.903816 43.87,30.9 C41.7633333,30.9 40.6833333,29.7 40.63,27.3 L40.63,27.22 C40.0239037,28.229992 39.2132033,29.1020058 38.25,29.78 C37.1700679,30.5432863 35.871948,30.9362307 34.55,30.9 C33.2807152,30.8718955 32.043068,30.4985271 30.97,29.82 C29.7566667,29.1 29.15,27.7933333 29.15,25.9 C29.15,23.66 30.0366667,22.1866667 31.81,21.48 C33.6115286,20.767993 35.5329097,20.4081583 37.47,20.42 C38.0033333,20.42 38.5433333,20.4333333 39.09,20.46 C39.6366667,20.4866667 40.15,20.5266667 40.63,20.58 L40.63,18.98 C40.6794235,17.8809048 40.3934383,16.7927661 39.81,15.86 C39.2633333,15.06 38.19,14.66 36.59,14.66 C35.4034088,14.6342926 34.2266817,14.8805843 33.15,15.38 L32.47,18.46 L30.15,18.18 L30.79,14.06 Z M40.63,23.82 L40.63,22.46 C40.1233333,22.4333333 39.59,22.3933333 39.03,22.34 C38.47,22.2866667 37.8966667,22.26 37.31,22.26 C36.0755098,22.2427616 34.8483933,22.4529308 33.69,22.88 C32.5987836,23.3068209 31.9330931,24.4163051 32.07,25.58 C31.9640218,26.5061523 32.3798401,27.4147922 33.15,27.94 C33.824283,28.3537252 34.5989237,28.5750511 35.39,28.58 C36.6565443,28.5657098 37.8790939,28.1134371 38.85,27.3 C39.924889,26.457106 40.5756248,25.184881 40.63,23.82 Z M63.99,24.5 C63.7143325,26.1220232 62.9864259,27.6332962 61.89,28.86 C60.73,30.22 58.9233333,30.9 56.47,30.9 C54.2572937,30.9986961 52.1110929,30.1299958 50.59,28.52 C49.0288142,26.6647808 48.2410873,24.2801166 48.39,21.86 C48.3623342,19.4945642 49.0910942,17.1821526 50.47,15.26 C51.9140033,13.2838724 54.2675779,12.1825203 56.71,12.34 C57.8029127,12.3298911 58.8923611,12.4643909 59.95,12.74 C60.9818345,13.0293823 61.9467709,13.5186458 62.79,14.18 L63.47,18.46 L61.15,18.74 L60.47,15.74 C59.3242854,15.0518878 58.006014,14.7049743 56.67,14.74 C55.0361741,14.6068998 53.4638153,15.3930792 52.59,16.78 C51.7286366,18.273368 51.2993243,19.9767685 51.35,21.7 C51.2449196,23.476274 51.7378008,25.2365642 52.75,26.7 C53.7248149,27.9199988 55.2310375,28.5910881 56.79,28.5 C59.4566667,28.5 61.0566667,26.9933333 61.59,23.98 L63.99,24.5 Z M87.39,30.5 L78.35,30.5 L78.35,28.22 L81.47,28.22 L81.47,19.94 C81.47,18.02 81.0766667,16.6666667 80.29,15.88 C79.4889541,15.0873049 78.3962631,14.6603594 77.27,14.7 C75.8399932,14.650855 74.4596637,15.2278181 73.49,16.28 C72.5605316,17.2316313 72.0125655,18.4912415 71.95,19.82 L71.95,28.22 L75.03,28.22 L75.03,30.5 L66.03,30.5 L66.03,28.22 L69.11,28.22 L69.11,5.26 L66.03,5.26 L66.03,2.98 L71.95,2.98 L71.95,15.9 C73.1476985,13.5882924 75.5905109,12.1946366 78.19,12.34 C79.7950653,12.2924773 81.3566702,12.8655433 82.55,13.94 C83.7233333,15.0066667 84.31,16.7266667 84.31,19.1 L84.31,28.22 L87.39,28.22 L87.39,30.5 Z M90.99,14.06 C91.8964861,13.4586196 92.896855,13.0125091 93.95,12.74 C95.0354791,12.4677815 96.1509272,12.3333902 97.27,12.34 C101.51,12.34 103.63,14.3266667 103.63,18.3 L103.63,26.78 C103.63,28.06 104.136667,28.7 105.15,28.7 C105.562702,28.7083162 105.972243,28.6264081 106.35,28.46 L106.39,30.3 C105.681499,30.697097 104.882185,30.903816 104.07,30.9 C101.963333,30.9 100.883333,29.7 100.83,27.3 L100.83,27.22 C100.223904,28.229992 99.4132033,29.1020058 98.45,29.78 C97.3700679,30.5432863 96.071948,30.9362307 94.75,30.9 C93.4807152,30.8718955 92.243068,30.4985271 91.17,29.82 C89.9566667,29.1 89.35,27.7933333 89.35,25.9 C89.35,23.66 90.2366667,22.1866667 92.01,21.48 C93.8115286,20.767993 95.7329097,20.4081583 97.67,20.42 C98.2033333,20.42 98.7433333,20.4333333 99.29,20.46 C99.8366667,20.4866667 100.35,20.5266667 100.83,20.58 L100.83,18.98 C100.879423,17.8809048 100.593438,16.7927661 100.01,15.86 C99.4633333,15.06 98.39,14.66 96.79,14.66 C95.6034088,14.6342926 94.4266817,14.8805843 93.35,15.38 L92.67,18.46 L90.35,18.18 L90.99,14.06 Z M100.83,23.82 L100.83,22.46 C100.323333,22.4333333 99.79,22.3933333 99.23,22.34 C98.67,22.2866667 98.0966667,22.26 97.51,22.26 C96.2755098,22.2427616 95.0483933,22.4529308 93.89,22.88 C92.7987836,23.3068209 92.1330931,24.4163051 92.27,25.58 C92.1640218,26.5061523 92.5798401,27.4147922 93.35,27.94 C94.024283,28.3537252 94.7989237,28.5750511 95.59,28.58 C96.8565443,28.5657098 98.0790939,28.1134371 99.05,27.3 C100.124889,26.457106 100.775625,25.184881 100.83,23.82 Z M118.43,12.38 C119.519926,12.3201865 120.596133,12.6458808 121.47,13.3 L122.15,17.78 L119.87,18.06 L119.19,15.02 C118.753684,14.8629776 118.293707,14.7818053 117.83,14.78 C116.805161,14.7719775 115.838485,15.2553157 115.23,16.08 C114.502587,17.0523422 114.135024,18.2469229 114.19,19.46 L114.19,28.22 L118.31,28.22 L118.31,30.5 L108.27,30.5 L108.27,28.22 L111.39,28.22 L111.39,14.98 L108.19,14.98 L108.19,12.7 L114.03,12.7 L114.03,15.9 C114.364919,14.9306457 114.951643,14.0678168 115.73,13.4 C116.472254,12.7367489 117.434612,12.3731913 118.43,12.38 Z M143.95,14.98 L141.83,14.98 L135.55,30.5 L133.15,36.74 L136.19,36.74 L136.19,39.02 L127.15,39.02 L127.15,36.74 L130.47,36.74 L132.79,30.46 L126.31,14.98 L124.19,14.98 L124.19,12.7 L132.43,12.7 L132.43,14.98 L129.31,14.98 L134.31,26.94 L134.55,26.94 L138.99,14.98 L136.11,14.98 L136.11,12.7 L143.95,12.7 L143.95,14.98 Z" id="Path_2" fill="#000000"></path>
            <path d="M174.2,32.5 L167.15,32.5 L160.3,19.25 L154.1,19.25 L154.1,28.55 L158.2,28.55 L158.2,32.5 L145.6,32.5 L145.6,28.55 L149.55,28.55 L149.55,3.95 L145.6,3.95 L145.6,0 L159.85,0 C163.883333,0 166.833333,0.858333333 168.7,2.575 C170.584586,4.33238857 171.607361,6.82540244 171.5,9.4 C171.539037,11.4108936 170.915294,13.3787603 169.725,15 C168.485248,16.6387373 166.734668,17.8175198 164.75,18.35 L170.15,28.55 L174.2,28.55 L174.2,32.5 Z M166.65,9.5 C166.80062,7.88706808 166.157144,6.30169219 164.925,5.25 C163.775,4.38333333 161.85,3.95 159.15,3.95 L154.1,3.95 L154.1,15.55 L159.2,15.55 C161.933333,15.55 163.858333,15.0166667 164.975,13.95 C166.136966,12.7699343 166.74545,11.1533627 166.65,9.5 Z" id="Path_3" fill="#1565C0"></path>
            <path d="M196.39,30.5 L190.39,30.5 L190.39,27.14 C189.834584,28.254853 188.983634,29.1957414 187.93,29.86 C186.811557,30.5642615 185.511451,30.9257884 184.19,30.9 C182.575832,30.9443529 181.00682,30.3640335 179.81,29.28 C178.623333,28.2 178.03,26.4733333 178.03,24.1 L178.03,14.98 L174.91,14.98 L174.91,12.7 L180.83,12.7 L180.83,23.3 C180.83,25.22 181.23,26.5666667 182.03,27.34 C182.859084,28.124828 183.96917,28.5429125 185.11,28.5 C186.55527,28.5344123 187.935481,27.8996625 188.85,26.78 C189.763233,25.777674 190.30658,24.4934008 190.39,23.14 L190.39,14.98 L186.67,14.98 L186.67,12.7 L193.19,12.7 L193.19,28.22 L196.39,28.22 L196.39,30.5 Z M212.95,25.34 C212.994861,26.9895559 212.166209,28.5404273 210.77,29.42 C209.168893,30.4489465 207.292109,30.9652364 205.39,30.9 C204.12676,30.8986773 202.869225,30.7305576 201.65,30.4 C200.583671,30.1404079 199.564632,29.715246 198.63,29.14 L199.19,25.1 L201.43,25.34 L201.31,27.7 C202.546519,28.2888752 203.900454,28.5897496 205.27,28.58 C206.426281,28.6018664 207.571161,28.3482102 208.61,27.84 C209.512884,27.4559319 210.091057,26.5609503 210.07,25.58 C210.142742,24.7257939 209.703186,23.9094754 208.95,23.5 C208.07666,23.0591404 207.137945,22.761993 206.17,22.62 C205.063333,22.4333333 203.95,22.2066667 202.83,21.94 C201.797509,21.7168992 200.835856,21.2429417 200.03,20.56 C199.223095,19.7554482 198.813124,18.6353476 198.91,17.5 C198.768304,15.8759916 199.579145,14.316682 200.99,13.5 C202.370694,12.7281925 203.92827,12.3284605 205.51,12.34 C206.680458,12.3321283 207.845887,12.4938062 208.97,12.82 C209.929065,13.0882344 210.849873,13.4780655 211.71,13.98 L212.15,18.14 L209.83,18.42 L209.39,15.54 C208.267178,14.9526374 207.017135,14.6504292 205.75,14.66 C204.789212,14.6215245 203.835803,14.8426048 202.99,15.3 C202.279804,15.7078658 201.861527,16.4824533 201.91,17.3 C201.848484,18.1257836 202.290548,18.9072893 203.03,19.28 C203.899536,19.7048381 204.831219,19.9883937 205.79,20.12 C206.883333,20.2933333 207.976667,20.5133333 209.07,20.78 C210.095517,21.0116654 211.045278,21.5003109 211.83,22.2 C212.637458,23.0369364 213.045524,24.1809808 212.95,25.34 Z M230.47,25.34 C230.514861,26.9895559 229.686209,28.5404273 228.29,29.42 C226.688893,30.4489465 224.812109,30.9652364 222.91,30.9 C221.64676,30.8986773 220.389225,30.7305576 219.17,30.4 C218.103671,30.1404079 217.084632,29.715246 216.15,29.14 L216.71,25.1 L218.95,25.34 L218.83,27.7 C220.066519,28.2888752 221.420454,28.5897496 222.79,28.58 C223.946281,28.6018664 225.091161,28.3482102 226.13,27.84 C227.032884,27.4559319 227.611057,26.5609503 227.59,25.58 C227.662742,24.7257939 227.223186,23.9094754 226.47,23.5 C225.59666,23.0591404 224.657945,22.761993 223.69,22.62 C222.583333,22.4333333 221.47,22.2066667 220.35,21.94 C219.317509,21.7168992 218.355856,21.2429417 217.55,20.56 C216.743095,19.7554482 216.333124,18.6353476 216.43,17.5 C216.288304,15.8759916 217.099145,14.316682 218.51,13.5 C219.890694,12.7281925 221.44827,12.3284605 223.03,12.34 C224.200458,12.3321283 225.365887,12.4938062 226.49,12.82 C227.449065,13.0882344 228.369873,13.4780655 229.23,13.98 L229.67,18.14 L227.35,18.42 L226.91,15.54 C225.787178,14.9526374 224.537135,14.6504292 223.27,14.66 C222.309212,14.6215245 221.355803,14.8426048 220.51,15.3 C219.799804,15.7078658 219.381527,16.4824533 219.43,17.3 C219.368484,18.1257836 219.810548,18.9072893 220.55,19.28 C221.419536,19.7048381 222.351219,19.9883937 223.31,20.12 C224.403333,20.2933333 225.496667,20.5133333 226.59,20.78 C227.615517,21.0116654 228.565278,21.5003109 229.35,22.2 C230.157458,23.0369364 230.565524,24.1809808 230.47,25.34 Z M249.43,25.38 C249.17999,26.9177802 248.367385,28.3077624 247.15,29.28 C245.667423,30.4268809 243.821626,31.0019177 241.95,30.9 C239.683112,30.9943717 237.479573,30.1390509 235.87,28.54 C234.230354,26.7156098 233.394168,24.3079695 233.55,21.86 C233.449719,19.3913498 234.229382,16.9673084 235.75,15.02 C237.204064,13.2383246 239.412236,12.2453883 241.71,12.34 C243.835826,12.2007233 245.905495,13.0581575 247.31,14.66 C248.587823,16.1991187 249.281866,18.1396058 249.27,20.14 C249.26776,20.8533165 249.187278,21.5642349 249.03,22.26 L236.51,22.26 C236.67,26.42 238.55,28.5 242.15,28.5 C243.340158,28.5702482 244.51663,28.2158891 245.47,27.5 C246.278618,26.8194485 246.84086,25.8917503 247.07,24.86 L249.43,25.38 Z M246.31,20.18 C246.445468,18.8553447 246.112897,17.525064 245.37,16.42 C244.529232,15.2050052 243.1021,14.5334137 241.63,14.66 C240.21618,14.5489789 238.843521,15.1674296 237.99,16.3 C237.194147,17.4531146 236.699145,18.7868698 236.55,20.18 L246.31,20.18 Z M260.67,30.5 L251.63,30.5 L251.63,28.22 L254.75,28.22 L254.75,5.26 L251.59,5.26 L251.59,2.98 L257.55,2.98 L257.55,28.22 L260.67,28.22 L260.67,30.5 Z M271.31,30.5 L262.27,30.5 L262.27,28.22 L265.39,28.22 L265.39,5.26 L262.23,5.26 L262.23,2.98 L268.19,2.98 L268.19,28.22 L271.31,28.22 L271.31,30.5 Z" id="Path_4" fill="#000000"></path>
        </g>
    </g>
</svg>