<svg xmlns="http://www.w3.org/2000/svg" viewBox="0 0 270.03 39.02"><defs><style>.a{fill:#388e3c;}</style></defs><g transform="translate(-1.45 -9.5)"><path class="a" d="M26.2,0H1.55l-.1-2.55,18.4-25.9v-.1H7.35L6.05-22.4,2.2-22.85,3.4-32.5H26.35l.1,2.3L7.9-4.05v.1H22.25l1.3-6.65,3.9.5Z" transform="translate(0 42)"/><path d="M3.4-16.36A7.038,7.038,0,0,1,6.1-17.7a12.33,12.33,0,0,1,3.18-.42q6.16,0,6.16,5.96v8.64q0,2.04,1.56,2.04a2.767,2.767,0,0,0,1.32-.28l.04,1.6A3.791,3.791,0,0,1,16.28.4q-3.04,0-3.04-3.6v-.08A8.273,8.273,0,0,1,10.82-.72,6.233,6.233,0,0,1,7.12.4,7.084,7.084,0,0,1,3.54-.66Q1.72-1.72,1.72-4.56q0-3.36,2.68-4.42a15.2,15.2,0,0,1,5.64-1.06q.84,0,1.66.06t1.54.1v-1.88a5.031,5.031,0,0,0-.94-3.22,4.111,4.111,0,0,0-3.38-1.18,7.938,7.938,0,0,0-3.6.8l-.72,3.2L2.76-12.4Zm9.84,9.84V-8.16q-.76-.08-1.64-.14T9.76-8.36a11.257,11.257,0,0,0-3.94.66A2.756,2.756,0,0,0,4.04-4.8,2.648,2.648,0,0,0,5.28-2.22a5.1,5.1,0,0,0,2.4.66A5.828,5.828,0,0,0,11.4-2.94,4.731,4.731,0,0,0,13.24-6.52Zm22.68.72a8.616,8.616,0,0,1-2.1,4.26A6.527,6.527,0,0,1,28.64.4,7.294,7.294,0,0,1,22.88-2a9.623,9.623,0,0,1-2.12-6.6,12.466,12.466,0,0,1,.84-4.48,8.344,8.344,0,0,1,2.62-3.62,7.118,7.118,0,0,1,4.58-1.42,9.038,9.038,0,0,1,5.96,1.92l.64,3.96L33.56-12l-.68-3a6.889,6.889,0,0,0-4.08-1.16,4.626,4.626,0,0,0-4.42,2.26,10.375,10.375,0,0,0-1.26,5.14,8.436,8.436,0,0,0,1.48,5.3,5.1,5.1,0,0,0,4.28,1.9q4.24,0,5.16-4.68ZM59.32,0h-8.8V-1.84h3.32v-8.84q0-3.04-1.28-4.26a4.508,4.508,0,0,0-3.24-1.22,5.281,5.281,0,0,0-4.04,1.72,5.729,5.729,0,0,0-1.68,3.72v8.88h3.28V0H38.12V-1.84H41.4V-25.68H38.12v-1.84H43.6V-14.4a7.029,7.029,0,0,1,2.54-2.72,7.126,7.126,0,0,1,3.82-1,6.064,6.064,0,0,1,4.36,1.64q1.72,1.64,1.72,5.28v9.36h3.28Zm3.72-16.36a7.038,7.038,0,0,1,2.7-1.34,12.33,12.33,0,0,1,3.18-.42q6.16,0,6.16,5.96v8.64q0,2.04,1.56,2.04a2.767,2.767,0,0,0,1.32-.28L78-.16A3.791,3.791,0,0,1,75.92.4q-3.04,0-3.04-3.6v-.08A8.273,8.273,0,0,1,70.46-.72,6.233,6.233,0,0,1,66.76.4,7.084,7.084,0,0,1,63.18-.66q-1.82-1.06-1.82-3.9,0-3.36,2.68-4.42a15.2,15.2,0,0,1,5.64-1.06q.84,0,1.66.06t1.54.1v-1.88a5.031,5.031,0,0,0-.94-3.22,4.111,4.111,0,0,0-3.38-1.18,7.938,7.938,0,0,0-3.6.8l-.72,3.2L62.4-12.4Zm9.84,9.84V-8.16q-.76-.08-1.64-.14T69.4-8.36a11.257,11.257,0,0,0-3.94.66,2.756,2.756,0,0,0-1.78,2.9,2.648,2.648,0,0,0,1.24,2.58,5.1,5.1,0,0,0,2.4.66,5.828,5.828,0,0,0,3.72-1.38A4.731,4.731,0,0,0,72.88-6.52ZM89.76-18.08a4.26,4.26,0,0,1,2.92.92l.64,3.96-1.84.24L90.8-16a5.288,5.288,0,0,0-1.36-.16,3.459,3.459,0,0,0-2.88,1.48,6.057,6.057,0,0,0-1.12,3.76v9.08H89.8V0H79.92V-1.84h3.32V-15.88H79.88v-1.88h5.44v3.16a5.454,5.454,0,0,1,1.76-2.48A4.186,4.186,0,0,1,89.76-18.08Zm25.4,2.2h-2.24L106.52,0l-2.6,6.68h3.24V8.52h-8.8V6.68h3.44l2.56-6.8L97.84-15.88h-2.2v-1.88h8v1.88h-3.48l5.36,12.92h.24l4.88-12.92H107.4v-1.88h7.76Z" transform="translate(29 40)"/><path class="a" d="M30.65,0H23.6L16.75-13.25h-6.2v9.3h4.1V0H2.05V-3.95H6v-24.6H2.05V-32.5H16.3q6.05,0,8.85,2.575a8.829,8.829,0,0,1,2.8,6.825,9.162,9.162,0,0,1-1.775,5.6A9.241,9.241,0,0,1,21.2-14.15l5.4,10.2h4.05ZM23.1-23a4.979,4.979,0,0,0-1.725-4.25q-1.725-1.3-5.775-1.3H10.55v11.6h5.1q4.1,0,5.775-1.6A5.861,5.861,0,0,0,23.1-23Z" transform="translate(145 42)"/><path d="M21.56,0H16.04V-3.52A6.9,6.9,0,0,1,13.56-.68,6.751,6.751,0,0,1,9.76.4a6.205,6.205,0,0,1-4.4-1.64Q3.6-2.88,3.6-6.52v-9.36H.32v-1.88H5.8V-7.04Q5.8-4,7.1-2.78a4.631,4.631,0,0,0,3.3,1.22,4.981,4.981,0,0,0,3.98-1.88,6.33,6.33,0,0,0,1.66-3.8v-8.64H12.12v-1.88h6.12V-1.84h3.32Zm16.2-5.04a4.613,4.613,0,0,1-2.1,3.96A8.766,8.766,0,0,1,30.48.4a12.942,12.942,0,0,1-3.7-.54A9.646,9.646,0,0,1,24-1.36l.48-3.76,1.8.16-.16,2.4a8.973,8.973,0,0,0,4.28,1,7.888,7.888,0,0,0,3.54-.78A2.58,2.58,0,0,0,35.52-4.8a2.442,2.442,0,0,0-1.14-2.28,8.344,8.344,0,0,0-2.82-.98q-1.68-.3-3.34-.66a6.356,6.356,0,0,1-2.8-1.32,3.706,3.706,0,0,1-1.14-3,4.194,4.194,0,0,1,1.96-3.9,8.146,8.146,0,0,1,4.28-1.18,11.256,11.256,0,0,1,3.46.52,12.721,12.721,0,0,1,2.62,1.12L37-12.4l-1.84.24-.48-3a10.158,10.158,0,0,0-1.76-.72,7.292,7.292,0,0,0-2.12-.28,5.969,5.969,0,0,0-3.04.68,2.355,2.355,0,0,0-1.16,2.2,2.24,2.24,0,0,0,1.12,2.14,8.752,8.752,0,0,0,2.8.9q1.68.28,3.34.68a6.311,6.311,0,0,1,2.78,1.4A3.978,3.978,0,0,1,37.76-5.04Zm17.28,0a4.613,4.613,0,0,1-2.1,3.96A8.766,8.766,0,0,1,47.76.4a12.942,12.942,0,0,1-3.7-.54,9.646,9.646,0,0,1-2.78-1.22l.48-3.76,1.8.16-.16,2.4a8.973,8.973,0,0,0,4.28,1,7.888,7.888,0,0,0,3.54-.78A2.58,2.58,0,0,0,52.8-4.8a2.442,2.442,0,0,0-1.14-2.28,8.344,8.344,0,0,0-2.82-.98q-1.68-.3-3.34-.66a6.356,6.356,0,0,1-2.8-1.32,3.706,3.706,0,0,1-1.14-3,4.194,4.194,0,0,1,1.96-3.9,8.146,8.146,0,0,1,4.28-1.18,11.256,11.256,0,0,1,3.46.52,12.721,12.721,0,0,1,2.62,1.12l.4,4.08-1.84.24-.48-3a10.158,10.158,0,0,0-1.76-.72,7.292,7.292,0,0,0-2.12-.28,5.969,5.969,0,0,0-3.04.68,2.355,2.355,0,0,0-1.16,2.2A2.24,2.24,0,0,0,45-11.14a8.752,8.752,0,0,0,2.8.9q1.68.28,3.34.68a6.311,6.311,0,0,1,2.78,1.4A3.978,3.978,0,0,1,55.04-5.04Zm18.8.08a6.331,6.331,0,0,1-2.24,3.8A7.419,7.419,0,0,1,66.64.4,7.765,7.765,0,0,1,60.68-2a9.352,9.352,0,0,1-2.24-6.64,10.472,10.472,0,0,1,2.16-6.82,7.085,7.085,0,0,1,5.8-2.66,6.442,6.442,0,0,1,5.46,2.38,8.687,8.687,0,0,1,1.82,5.42,11.508,11.508,0,0,1-.2,2H60.76A7.612,7.612,0,0,0,62.4-3.34a5.54,5.54,0,0,0,4.4,1.78Q71-1.56,72-5.4Zm-2.48-5.2a6.278,6.278,0,0,0-1.04-4.06,4.432,4.432,0,0,0-4.04-1.94,4.476,4.476,0,0,0-3.94,1.8,9.016,9.016,0,0,0-1.54,4.2ZM85.04,0H76.28V-1.84h3.28V-25.68H76.24v-1.84h5.52V-1.84h3.28ZM95.48,0H86.72V-1.84H90V-25.68H86.68v-1.84H92.2V-1.84h3.28Z" transform="translate(176 40)"/></g></svg>