<svg xmlns="http://www.w3.org/2000/svg" viewBox="0 0 271.31 39.02">
  <defs>
    <style>
      .cls-1 {
        fill: #388e3c;
      }
    </style>
  </defs>
  <g id="Group_2" data-name="Group 2" transform="translate(-1.45 -9.5)">
    <g id="Group_1" data-name="Group 1">
      <path id="Path_1" data-name="Path 1" class="cls-1" d="M26.2,0H1.55l-.1-2.55,18.4-25.9v-.1H7.35L6.05-22.4,2.2-22.85,3.4-32.5H26.35l.1,2.3L7.9-4.05v.1H22.25l1.3-6.65,3.9.5Z" transform="translate(0 42)"/>
      <path id="Path_2" data-name="Path 2" d="M3.24-16.44A9.791,9.791,0,0,1,6.2-17.76a13.325,13.325,0,0,1,3.32-.4q6.36,0,6.36,5.96v8.48q0,1.92,1.52,1.92a2.835,2.835,0,0,0,1.2-.24L18.64-.2a4.7,4.7,0,0,1-2.32.6q-3.16,0-3.24-3.6v-.08A8.444,8.444,0,0,1,10.7-.72,6.12,6.12,0,0,1,7,.4,6.988,6.988,0,0,1,3.42-.68Q1.6-1.76,1.6-4.6q0-3.36,2.66-4.42a15.147,15.147,0,0,1,5.66-1.06q.8,0,1.62.04t1.54.12v-1.6a5.424,5.424,0,0,0-.82-3.12q-.82-1.2-3.22-1.2a7.775,7.775,0,0,0-3.44.72l-.68,3.08L2.6-12.32Zm9.84,9.76V-8.04q-.76-.04-1.6-.12T9.76-8.24a10.059,10.059,0,0,0-3.62.62,2.576,2.576,0,0,0-1.62,2.7A2.511,2.511,0,0,0,5.6-2.56a4.335,4.335,0,0,0,2.24.64A5.484,5.484,0,0,0,11.3-3.2,4.658,4.658,0,0,0,13.08-6.68ZM36.44-6a8.74,8.74,0,0,1-2.1,4.36Q32.6.4,28.92.4a7.622,7.622,0,0,1-5.88-2.38,9.443,9.443,0,0,1-2.2-6.66,11.1,11.1,0,0,1,2.08-6.6,7.158,7.158,0,0,1,6.24-2.92,12.394,12.394,0,0,1,3.24.4,8.182,8.182,0,0,1,2.84,1.44l.68,4.28-2.32.28-.68-3a7.023,7.023,0,0,0-3.8-1,4.4,4.4,0,0,0-4.08,2.04A9.3,9.3,0,0,0,23.8-8.8a7.963,7.963,0,0,0,1.4,5A4.812,4.812,0,0,0,29.24-2q4,0,4.8-4.52Zm23.4,6H50.8V-2.28h3.12v-8.28q0-2.88-1.18-4.06a4.089,4.089,0,0,0-3.02-1.18,4.911,4.911,0,0,0-3.78,1.58,5.432,5.432,0,0,0-1.54,3.54v8.4h3.08V0h-9V-2.28h3.08V-25.24H38.48v-2.28H44.4V-14.6a6.612,6.612,0,0,1,6.24-3.56A6.24,6.24,0,0,1,55-16.56q1.76,1.6,1.76,5.16v9.12h3.08Zm3.6-16.44a9.791,9.791,0,0,1,2.96-1.32,13.325,13.325,0,0,1,3.32-.4q6.36,0,6.36,5.96v8.48q0,1.92,1.52,1.92a2.835,2.835,0,0,0,1.2-.24L78.84-.2a4.7,4.7,0,0,1-2.32.6q-3.16,0-3.24-3.6v-.08A8.444,8.444,0,0,1,70.9-.72,6.12,6.12,0,0,1,67.2.4,6.988,6.988,0,0,1,63.62-.68Q61.8-1.76,61.8-4.6q0-3.36,2.66-4.42a15.147,15.147,0,0,1,5.66-1.06q.8,0,1.62.04t1.54.12v-1.6a5.424,5.424,0,0,0-.82-3.12q-.82-1.2-3.22-1.2a7.775,7.775,0,0,0-3.44.72l-.68,3.08-2.32-.28Zm9.84,9.76V-8.04q-.76-.04-1.6-.12t-1.72-.08a10.059,10.059,0,0,0-3.62.62,2.576,2.576,0,0,0-1.62,2.7A2.511,2.511,0,0,0,65.8-2.56a4.335,4.335,0,0,0,2.24.64A5.484,5.484,0,0,0,71.5-3.2,4.658,4.658,0,0,0,73.28-6.68Zm17.6-11.44a4.648,4.648,0,0,1,3.04.92l.68,4.48-2.28.28-.68-3.04a4.063,4.063,0,0,0-1.36-.24,3.2,3.2,0,0,0-2.6,1.3,5.246,5.246,0,0,0-1.04,3.38v8.76h4.12V0H80.72V-2.28h3.12V-15.52h-3.2V-17.8h5.84v3.2a5.782,5.782,0,0,1,1.7-2.5A4.011,4.011,0,0,1,90.88-18.12Zm25.52,2.6h-2.12L108,0l-2.4,6.24h3.04V8.52H99.6V6.24h3.32l2.32-6.28L98.76-15.52H96.64V-17.8h8.24v2.28h-3.12l5,11.96H107l4.44-11.96h-2.88V-17.8h7.84Z" transform="translate(29 40)"/>
      <path id="Path_3" data-name="Path 3" class="cls-1" d="M30.65,0H23.6L16.75-13.25h-6.2v9.3h4.1V0H2.05V-3.95H6v-24.6H2.05V-32.5H16.3q6.05,0,8.85,2.575a8.829,8.829,0,0,1,2.8,6.825,9.162,9.162,0,0,1-1.775,5.6A9.241,9.241,0,0,1,21.2-14.15l5.4,10.2h4.05ZM23.1-23a4.979,4.979,0,0,0-1.725-4.25q-1.725-1.3-5.775-1.3H10.55v11.6h5.1q4.1,0,5.775-1.6A5.861,5.861,0,0,0,23.1-23Z" transform="translate(145 42)"/>
      <path id="Path_4" data-name="Path 4" d="M21.84,0h-6V-3.36A6.8,6.8,0,0,1,13.38-.64,6.771,6.771,0,0,1,9.64.4,6.268,6.268,0,0,1,5.26-1.22Q3.48-2.84,3.48-6.4v-9.12H.36V-17.8H6.28V-7.2q0,2.88,1.2,4.04A4.248,4.248,0,0,0,10.56-2,4.685,4.685,0,0,0,14.3-3.72a5.948,5.948,0,0,0,1.54-3.64v-8.16H12.12V-17.8h6.52V-2.28h3.2ZM38.4-5.16a4.672,4.672,0,0,1-2.18,4.08A9.358,9.358,0,0,1,30.84.4,14.35,14.35,0,0,1,27.1-.1a10.5,10.5,0,0,1-3.02-1.26l.56-4.04,2.24.24L26.76-2.8a9.06,9.06,0,0,0,3.96.88,7.287,7.287,0,0,0,3.34-.74,2.4,2.4,0,0,0,1.46-2.26A2.159,2.159,0,0,0,34.4-7a9.1,9.1,0,0,0-2.78-.88q-1.66-.28-3.34-.68a6.432,6.432,0,0,1-2.8-1.38A3.858,3.858,0,0,1,24.36-13a4.2,4.2,0,0,1,2.08-4,9.127,9.127,0,0,1,4.52-1.16,12.123,12.123,0,0,1,3.46.48,11.676,11.676,0,0,1,2.74,1.16l.44,4.16-2.32.28-.44-2.88a7.727,7.727,0,0,0-3.64-.88,5.352,5.352,0,0,0-2.76.64,2.159,2.159,0,0,0-1.08,2,2.047,2.047,0,0,0,1.12,1.98,9.109,9.109,0,0,0,2.76.84q1.64.26,3.28.66A6.2,6.2,0,0,1,37.28-8.3,4.044,4.044,0,0,1,38.4-5.16Zm17.52,0a4.672,4.672,0,0,1-2.18,4.08A9.358,9.358,0,0,1,48.36.4a14.35,14.35,0,0,1-3.74-.5A10.5,10.5,0,0,1,41.6-1.36l.56-4.04,2.24.24L44.28-2.8a9.06,9.06,0,0,0,3.96.88,7.287,7.287,0,0,0,3.34-.74,2.4,2.4,0,0,0,1.46-2.26A2.159,2.159,0,0,0,51.92-7a9.1,9.1,0,0,0-2.78-.88q-1.66-.28-3.34-.68A6.432,6.432,0,0,1,43-9.94,3.858,3.858,0,0,1,41.88-13a4.2,4.2,0,0,1,2.08-4,9.127,9.127,0,0,1,4.52-1.16,12.123,12.123,0,0,1,3.46.48,11.676,11.676,0,0,1,2.74,1.16l.44,4.16-2.32.28-.44-2.88a7.727,7.727,0,0,0-3.64-.88,5.352,5.352,0,0,0-2.76.64,2.159,2.159,0,0,0-1.08,2A2.047,2.047,0,0,0,46-11.22a9.109,9.109,0,0,0,2.76.84q1.64.26,3.28.66A6.2,6.2,0,0,1,54.8-8.3,4.044,4.044,0,0,1,55.92-5.16Zm18.96.04a6.281,6.281,0,0,1-2.28,3.9A7.805,7.805,0,0,1,67.4.4a8.146,8.146,0,0,1-6.08-2.36A9.126,9.126,0,0,1,59-8.64a10.426,10.426,0,0,1,2.2-6.84,7.305,7.305,0,0,1,5.96-2.68,6.852,6.852,0,0,1,5.6,2.32,8.5,8.5,0,0,1,1.96,5.48,9.754,9.754,0,0,1-.24,2.12H61.96Q62.2-2,67.6-2a5.035,5.035,0,0,0,3.32-1,4.815,4.815,0,0,0,1.6-2.64Zm-3.12-5.2a5.7,5.7,0,0,0-.94-3.76,4.119,4.119,0,0,0-3.74-1.76,4.151,4.151,0,0,0-3.64,1.64A8.406,8.406,0,0,0,62-10.32ZM86.12,0H77.08V-2.28H80.2V-25.24H77.04v-2.28H83V-2.28h3.12ZM96.76,0H87.72V-2.28h3.12V-25.24H87.68v-2.28h5.96V-2.28h3.12Z" transform="translate(176 40)"/>
    </g>
  </g>
</svg>
